<svg width="40" height="40" viewBox="0 0 40 40" fill="none" xmlns="http://www.w3.org/2000/svg">
<rect width="40" height="40" rx="10" fill="#274A75"/>
<path fill-rule="evenodd" clip-rule="evenodd" d="M31.6137 13.7031C31.7945 13.1303 31.6137 12.7139 30.8139 12.7139H28.1545C27.4836 12.7139 27.1739 13.0785 26.9931 13.4685C26.9931 13.4685 25.625 16.7998 23.7146 18.9595C23.0951 19.5841 22.8113 19.7923 22.4756 19.7923C22.2948 19.7923 22.0622 19.5841 22.0622 19.0118V13.6762C22.0622 12.9998 21.8561 12.6875 21.2878 12.6875H17.1055C16.6921 12.6875 16.4341 12.9998 16.4341 13.3121C16.4341 13.9626 17.3893 14.119 17.4924 15.9405V19.8984C17.4924 20.7571 17.3401 20.9141 17.0019 20.9141C16.0985 20.9141 13.9042 17.5569 12.588 13.7316C12.332 12.9739 12.072 12.6875 11.4007 12.6875H8.7159C7.94148 12.6875 7.8125 13.0516 7.8125 13.4421C7.8125 14.1449 8.7159 17.6839 12.0202 22.3679C14.2145 25.5671 17.338 27.2866 20.1518 27.2866C21.8561 27.2866 22.0622 26.8961 22.0622 26.2456V23.8254C22.0622 23.0448 22.2171 22.9148 22.7595 22.9148C23.1464 22.9148 23.8436 23.1225 25.4184 24.6582C27.2252 26.4797 27.5349 27.3125 28.5419 27.3125H31.2008C31.9752 27.3125 32.3368 26.922 32.1301 26.1674C31.898 25.4128 31.02 24.32 29.8841 23.0189C29.2645 22.2907 28.3352 21.4838 28.0514 21.0933C27.6644 20.5728 27.7675 20.3646 28.0514 19.8964C28.0255 19.8964 31.2785 15.2641 31.6137 13.7011" fill="white"/>
</svg>
