<svg width="24" height="24" viewBox="0 0 24 24" fill="none" xmlns="http://www.w3.org/2000/svg">
<g clip-path="url(#clip0_54_23)">
<path d="M19.1972 23.942C18.1566 23.942 16.6947 23.5656 14.5057 22.3427C11.8438 20.8499 9.78485 19.4718 7.13734 16.8312C4.58472 14.2802 3.34254 12.6285 1.60401 9.46495C-0.360036 5.893 -0.0252319 4.02065 0.349024 3.22043C0.794718 2.264 1.4526 1.69195 2.30294 1.12417C2.78592 0.807726 3.29704 0.536461 3.82981 0.313817C3.88313 0.290893 3.93271 0.269035 3.97696 0.249309C4.24086 0.130421 4.6407 -0.0492427 5.14717 0.142683C5.48518 0.269568 5.78693 0.529201 6.25928 0.995688C7.22797 1.95105 8.55173 4.07876 9.04007 5.1237C9.36794 5.82796 9.58493 6.29284 9.58546 6.81424C9.58546 7.42467 9.27838 7.89543 8.90572 8.4035C8.83588 8.49893 8.76658 8.59009 8.6994 8.67859C8.29369 9.21172 8.20466 9.36579 8.2633 9.64089C8.38219 10.1937 9.26878 11.8395 10.7258 13.2933C12.1829 14.7472 13.7812 15.5778 14.3362 15.6961C14.623 15.7575 14.7803 15.6647 15.3304 15.2446C15.4093 15.1843 15.4904 15.122 15.5751 15.0596C16.1435 14.6368 16.5924 14.3377 17.1884 14.3377H17.1916C17.7103 14.3377 18.1544 14.5627 18.8901 14.9338C19.8498 15.4179 22.0415 16.7246 23.0027 17.6943C23.4702 18.1656 23.7309 18.4663 23.8584 18.8038C24.0503 19.3118 23.8695 19.7101 23.7517 19.9766C23.732 20.0209 23.7101 20.0694 23.6872 20.1232C23.4628 20.6551 23.1899 21.1651 22.8721 21.6469C22.3054 22.4946 21.7312 23.1509 20.7726 23.5971C20.2804 23.8299 19.7417 23.9479 19.1972 23.942Z" fill="white"/>
</g>
<defs>
<clipPath id="clip0_54_23">
<rect width="24" height="24" fill="white"/>
</clipPath>
</defs>
</svg>
