<?xml version="1.0" encoding="utf-8"?><svg xmlns="http://www.w3.org/2000/svg" xmlns:xlink="http://www.w3.org/1999/xlink"><symbol viewBox="0 0 24 24" id="call" xmlns="http://www.w3.org/2000/svg"><g clip-path="url(#aclip0_54_23)"><path d="M19.197 23.942c-1.04 0-2.502-.376-4.691-1.6-2.662-1.492-4.721-2.87-7.369-5.51-2.552-2.552-3.794-4.204-5.533-7.367C-.36 5.893-.026 4.021.349 3.22c.446-.956 1.104-1.528 1.954-2.096A9.399 9.399 0 013.83.314l.147-.065c.264-.119.664-.298 1.17-.106.338.127.64.386 1.112.853.969.955 2.293 3.083 2.781 4.128.328.704.545 1.169.545 1.69 0 .61-.307 1.081-.68 1.59-.07.095-.138.186-.206.275-.405.533-.494.687-.436.962.12.553 1.006 2.198 2.463 3.652 1.457 1.454 3.055 2.285 3.61 2.403.287.062.444-.031.994-.451.08-.06.16-.123.245-.185.569-.423 1.017-.722 1.613-.722h.004c.518 0 .962.225 1.698.596.96.484 3.151 1.79 4.113 2.76.467.472.728.772.855 1.11.192.508.011.906-.106 1.173l-.065.146a9.411 9.411 0 01-.815 1.524c-.567.848-1.14 1.504-2.1 1.95a3.6 3.6 0 01-1.575.345z"/></g><defs><clipPath id="aclip0_54_23"><path d="M0 0h24v24H0z"/></clipPath></defs></symbol><symbol viewBox="0 0 30 30" id="next" xmlns="http://www.w3.org/2000/svg"><g clip-path="url(#bclip0_39_9)"><path d="M15 9l-2.1 2.1 2.4 2.4H9v3h6.3l-2.4 2.4L15 21l6-6-6-6zm0-9c2.075 0 4.025.394 5.85 1.182 1.825.787 3.412 1.856 4.762 3.206 1.35 1.35 2.419 2.937 3.206 4.762C29.606 10.975 30 12.925 30 15c0 2.075-.394 4.025-1.182 5.85-.787 1.825-1.856 3.412-3.206 4.762a15.159 15.159 0 01-4.762 3.208C19.025 29.607 17.075 30 15 30c-2.075 0-4.025-.393-5.85-1.18-1.825-.788-3.413-1.858-4.763-3.207-1.35-1.35-2.418-2.938-3.205-4.763C.394 19.025 0 17.075 0 15c0-2.075.394-4.025 1.182-5.85.787-1.825 1.856-3.413 3.206-4.763 1.35-1.35 2.937-2.418 4.762-3.205C10.975.394 12.925 0 15 0z"/></g><defs><clipPath id="bclip0_39_9"><path transform="rotate(-180 15 15)" d="M0 0h30v30H0z"/></clipPath></defs></symbol><symbol viewBox="0 0 30 30" id="previews" xmlns="http://www.w3.org/2000/svg"><g clip-path="url(#cclip0_39_11)"><path d="M15 21l2.1-2.1-2.4-2.4H21v-3h-6.3l2.4-2.4L15 9l-6 6 6 6zm0 9c-2.075 0-4.025-.394-5.85-1.182-1.825-.787-3.413-1.856-4.763-3.206-1.35-1.35-2.418-2.937-3.205-4.762C.394 19.025 0 17.075 0 15c0-2.075.394-4.025 1.182-5.85.787-1.825 1.856-3.413 3.206-4.763 1.35-1.35 2.937-2.418 4.762-3.206C10.975.393 12.925 0 15 0c2.075 0 4.025.394 5.85 1.18a15.159 15.159 0 014.762 3.208c1.35 1.35 2.419 2.937 3.206 4.762C29.606 10.975 30 12.925 30 15c0 2.075-.394 4.025-1.182 5.85-.787 1.825-1.856 3.412-3.206 4.762-1.35 1.35-2.937 2.419-4.762 3.206C19.025 29.606 17.075 30 15 30z"/></g><defs><clipPath id="cclip0_39_11"><path d="M0 0h30v30H0z"/></clipPath></defs></symbol></svg>