<svg width="30" height="30" viewBox="0 0 30 30" fill="none" xmlns="http://www.w3.org/2000/svg">
<g clip-path="url(#clip0_39_9)">
<path d="M15 9L12.9 11.1L15.3 13.5L9 13.5L9 16.5L15.3 16.5L12.9 18.9L15 21L21 15L15 9ZM15 5.96007e-07C17.075 7.77409e-07 19.025 0.394002 20.85 1.182C22.675 1.969 24.2625 3.0375 25.6125 4.3875C26.9625 5.7375 28.031 7.325 28.818 9.15C29.606 10.975 30 12.925 30 15C30 17.075 29.606 19.025 28.818 20.85C28.031 22.675 26.9625 24.2625 25.6125 25.6125C24.2625 26.9625 22.675 28.0315 20.85 28.8195C19.025 29.6065 17.075 30 15 30C12.925 30 10.975 29.6065 9.15 28.8195C7.325 28.0315 5.7375 26.9625 4.3875 25.6125C3.0375 24.2625 1.969 22.675 1.182 20.85C0.393998 19.025 -7.77409e-07 17.075 -5.96007e-07 15C-4.14605e-07 12.925 0.393999 10.975 1.182 9.15C1.969 7.325 3.0375 5.7375 4.3875 4.3875C5.7375 3.0375 7.325 1.969 9.15 1.182C10.975 0.394001 12.925 4.14605e-07 15 5.96007e-07Z" fill="#274A75"/>
</g>
<defs>
<clipPath id="clip0_39_9">
<rect width="30" height="30" fill="white" transform="translate(30 30) rotate(-180)"/>
</clipPath>
</defs>
</svg>
